<svg xmlns="http://www.w3.org/2000/svg" viewBox="0 0 240 240" role="img" aria-labelledby="title desc">
  <title id="title">Mountainview Yoga Studio logo</title>
  <desc id="desc">Lotus and mountain icon for Mountainview Yoga Studio.</desc>
  <rect width="240" height="240" rx="32" fill="#f6f0ff"/>
  <path d="M56 156c18-36 37-61 64-92 27 31 46 56 64 92H56z" fill="#6d597a" opacity="0.22"/>
  <path d="M120 74c9 18 15 30 15 41 0 9-7 16-15 16s-15-7-15-16c0-11 6-23 15-41z" fill="#b56576"/>
  <path d="M120 124c-16 0-29 10-36 27 15 0 26 7 36 18 10-11 21-18 36-18-7-17-20-27-36-27z" fill="#6d597a"/>
  <path d="M72 149c10-18 23-28 38-31-4 18-16 33-38 43 0-4 0-7 0-12zM168 149c-10-18-23-28-38-31 4 18 16 33 38 43 0-4 0-7 0-12z" fill="#e56b6f"/>
  <text x="120" y="206" text-anchor="middle" font-family="Segoe UI, Arial, sans-serif" font-size="19" font-weight="700" fill="#6d597a">MOUNTAINVIEW</text>
</svg>
